<mxfile host="app.diagrams.net" modified="2021-04-28T15:08:00.069Z" agent="5.0 (Macintosh; Intel Mac OS X 10_15_7) AppleWebKit/537.36 (KHTML, like Gecko) Chrome/90.0.4430.85 Safari/537.36" etag="3VNPG2TU1eTbYNqbLand" version="14.6.6" type="github">
  <diagram id="LcJHP_yqSGQxax1PCTqO" name="Page-1">
    <mxGraphModel dx="1298" dy="808" grid="1" gridSize="10" guides="1" tooltips="1" connect="1" arrows="1" fold="1" page="1" pageScale="1" pageWidth="827" pageHeight="1169" math="0" shadow="0">
      <root>
        <mxCell id="0" />
        <mxCell id="1" parent="0" />
        <mxCell id="d08K_uHXu6tvHsL5vNHd-1" value="&lt;p style=&quot;margin: 0px ; margin-top: 4px ; text-align: center&quot;&gt;&lt;i&gt;&amp;lt;&amp;lt;课程逻辑&amp;gt;&amp;gt;&lt;/i&gt;&lt;br&gt;&lt;b&gt;Interface&lt;/b&gt;&lt;/p&gt;&lt;p style=&quot;margin: 0px ; margin-left: 4px&quot;&gt;&lt;br&gt;&lt;/p&gt;&lt;hr size=&quot;1&quot;&gt;&lt;p style=&quot;margin: 0px ; margin-left: 4px&quot;&gt;+ 1、创建课程的学生章节列表&lt;br&gt;+ 2、扣除课程&lt;/p&gt;&lt;p style=&quot;margin: 0px ; margin-left: 4px&quot;&gt;+ 3、用户行为（完到课+动态解锁）&lt;/p&gt;&lt;p style=&quot;margin: 0px ; margin-left: 4px&quot;&gt;+ 4、异动数据组合&lt;/p&gt;" style="verticalAlign=top;align=left;overflow=fill;fontSize=12;fontFamily=Helvetica;html=1;" vertex="1" parent="1">
          <mxGeometry x="460" y="270" width="190" height="140" as="geometry" />
        </mxCell>
        <mxCell id="d08K_uHXu6tvHsL5vNHd-8" style="edgeStyle=orthogonalEdgeStyle;rounded=0;orthogonalLoop=1;jettySize=auto;html=1;entryX=0;entryY=0.5;entryDx=0;entryDy=0;" edge="1" parent="1" source="d08K_uHXu6tvHsL5vNHd-3" target="d08K_uHXu6tvHsL5vNHd-1">
          <mxGeometry relative="1" as="geometry" />
        </mxCell>
        <mxCell id="d08K_uHXu6tvHsL5vNHd-9" value="1、2" style="edgeLabel;html=1;align=center;verticalAlign=middle;resizable=0;points=[];" vertex="1" connectable="0" parent="d08K_uHXu6tvHsL5vNHd-8">
          <mxGeometry x="0.0074" y="-2" relative="1" as="geometry">
            <mxPoint as="offset" />
          </mxGeometry>
        </mxCell>
        <mxCell id="d08K_uHXu6tvHsL5vNHd-3" value="学生获课" style="rounded=0;whiteSpace=wrap;html=1;" vertex="1" parent="1">
          <mxGeometry x="130" y="250" width="120" height="60" as="geometry" />
        </mxCell>
        <mxCell id="d08K_uHXu6tvHsL5vNHd-4" value="" style="shape=singleArrow;direction=south;whiteSpace=wrap;html=1;" vertex="1" parent="1">
          <mxGeometry x="130" y="130" width="40" height="110" as="geometry" />
        </mxCell>
        <mxCell id="d08K_uHXu6tvHsL5vNHd-5" value="购买" style="text;html=1;align=center;verticalAlign=middle;resizable=0;points=[];autosize=1;strokeColor=none;" vertex="1" parent="1">
          <mxGeometry x="130" y="175" width="40" height="20" as="geometry" />
        </mxCell>
        <mxCell id="d08K_uHXu6tvHsL5vNHd-6" value="" style="shape=singleArrow;direction=south;whiteSpace=wrap;html=1;" vertex="1" parent="1">
          <mxGeometry x="200" y="130" width="40" height="110" as="geometry" />
        </mxCell>
        <mxCell id="d08K_uHXu6tvHsL5vNHd-7" value="种课等" style="text;html=1;align=center;verticalAlign=middle;resizable=0;points=[];autosize=1;strokeColor=none;" vertex="1" parent="1">
          <mxGeometry x="195" y="175" width="50" height="20" as="geometry" />
        </mxCell>
        <mxCell id="d08K_uHXu6tvHsL5vNHd-10" value="" style="shape=curlyBracket;whiteSpace=wrap;html=1;rounded=1;" vertex="1" parent="1">
          <mxGeometry x="660" y="280" width="20" height="120" as="geometry" />
        </mxCell>
        <mxCell id="d08K_uHXu6tvHsL5vNHd-12" value="1、正常课程" style="text;html=1;align=left;verticalAlign=middle;resizable=0;points=[];autosize=1;strokeColor=none;" vertex="1" parent="1">
          <mxGeometry x="680" y="270" width="80" height="20" as="geometry" />
        </mxCell>
        <mxCell id="d08K_uHXu6tvHsL5vNHd-13" value="2、拼音课" style="text;html=1;align=left;verticalAlign=middle;resizable=0;points=[];autosize=1;strokeColor=none;" vertex="1" parent="1">
          <mxGeometry x="680" y="300" width="70" height="20" as="geometry" />
        </mxCell>
        <mxCell id="d08K_uHXu6tvHsL5vNHd-14" value="3、0元课" style="text;html=1;align=left;verticalAlign=middle;resizable=0;points=[];autosize=1;strokeColor=none;" vertex="1" parent="1">
          <mxGeometry x="680" y="330" width="60" height="20" as="geometry" />
        </mxCell>
        <mxCell id="d08K_uHXu6tvHsL5vNHd-15" value="4、内部种课" style="text;html=1;align=left;verticalAlign=middle;resizable=0;points=[];autosize=1;strokeColor=none;" vertex="1" parent="1">
          <mxGeometry x="680" y="360" width="80" height="20" as="geometry" />
        </mxCell>
        <mxCell id="d08K_uHXu6tvHsL5vNHd-16" value="5、直接增课" style="text;html=1;align=left;verticalAlign=middle;resizable=0;points=[];autosize=1;strokeColor=none;" vertex="1" parent="1">
          <mxGeometry x="680" y="390" width="80" height="20" as="geometry" />
        </mxCell>
        <mxCell id="d08K_uHXu6tvHsL5vNHd-18" style="edgeStyle=orthogonalEdgeStyle;rounded=0;orthogonalLoop=1;jettySize=auto;html=1;entryX=0;entryY=0.65;entryDx=0;entryDy=0;entryPerimeter=0;" edge="1" parent="1" source="d08K_uHXu6tvHsL5vNHd-17" target="d08K_uHXu6tvHsL5vNHd-1">
          <mxGeometry relative="1" as="geometry" />
        </mxCell>
        <mxCell id="d08K_uHXu6tvHsL5vNHd-19" value="3" style="edgeLabel;html=1;align=center;verticalAlign=middle;resizable=0;points=[];" vertex="1" connectable="0" parent="d08K_uHXu6tvHsL5vNHd-18">
          <mxGeometry x="0.0039" relative="1" as="geometry">
            <mxPoint as="offset" />
          </mxGeometry>
        </mxCell>
        <mxCell id="d08K_uHXu6tvHsL5vNHd-17" value="用户完到课" style="rounded=0;whiteSpace=wrap;html=1;align=center;" vertex="1" parent="1">
          <mxGeometry x="130" y="331" width="120" height="60" as="geometry" />
        </mxCell>
        <mxCell id="d08K_uHXu6tvHsL5vNHd-21" style="edgeStyle=orthogonalEdgeStyle;rounded=0;orthogonalLoop=1;jettySize=auto;html=1;exitX=1;exitY=0.5;exitDx=0;exitDy=0;entryX=0;entryY=0.8;entryDx=0;entryDy=0;entryPerimeter=0;" edge="1" parent="1" source="d08K_uHXu6tvHsL5vNHd-20" target="d08K_uHXu6tvHsL5vNHd-1">
          <mxGeometry relative="1" as="geometry" />
        </mxCell>
        <mxCell id="d08K_uHXu6tvHsL5vNHd-23" value="4" style="edgeLabel;html=1;align=center;verticalAlign=middle;resizable=0;points=[];" vertex="1" connectable="0" parent="d08K_uHXu6tvHsL5vNHd-21">
          <mxGeometry x="-0.0325" y="1" relative="1" as="geometry">
            <mxPoint as="offset" />
          </mxGeometry>
        </mxCell>
        <mxCell id="d08K_uHXu6tvHsL5vNHd-20" value="课程异动" style="rounded=0;whiteSpace=wrap;html=1;align=center;" vertex="1" parent="1">
          <mxGeometry x="130" y="410" width="120" height="60" as="geometry" />
        </mxCell>
      </root>
    </mxGraphModel>
  </diagram>
</mxfile>
